<svg width="67" height="61" viewBox="0 0 67 61" fill="none" xmlns="http://www.w3.org/2000/svg">
<path fill-rule="evenodd" clip-rule="evenodd" d="M16.2433 0.635559C14.4349 0.635559 12.7461 1.53937 11.7429 3.04407L0.649667 19.684C-0.0294649 20.7027 -0.11068 22.0072 0.436854 23.1022C6.50735 35.2432 14.9436 46.0482 25.2498 54.8821L30.6608 59.52C32.0837 60.7397 34.1833 60.7397 35.6062 59.52L41.0172 54.8821C51.3233 46.0482 59.7596 35.2432 65.8301 23.1022C66.3776 22.0072 66.2964 20.7027 65.6173 19.684L54.524 3.04408C53.5209 1.53937 51.8321 0.635559 50.0237 0.635559H16.2433ZM15.6004 5.61571C15.7437 5.40075 15.9849 5.27163 16.2433 5.27163H23.475L17.5559 19.4774C17.4195 19.8047 17.3166 20.1421 17.2473 20.4849C15.0719 20.323 12.8984 20.1278 10.7276 19.8992L6.38291 19.4419L15.6004 5.61571ZM6.17828 24.0821C11.7212 34.2504 19.0405 43.3535 27.7965 50.9562L18.1365 25.1964C15.5022 25.0154 12.8704 24.7865 10.2422 24.5098L6.17828 24.0821ZM23.1962 25.4854L33.1335 51.9847L43.0707 25.4854C36.4493 25.7866 29.8176 25.7866 23.1962 25.4854ZM48.1304 25.1964L38.4705 50.9562C47.2265 43.3535 54.5458 34.2504 60.0887 24.0821L56.0247 24.5098C53.3966 24.7865 50.7647 25.0154 48.1304 25.1964ZM59.884 19.4419L55.5394 19.8992C53.3685 20.1278 51.195 20.323 49.0197 20.4849C48.9503 20.1421 48.8474 19.8047 48.7111 19.4774L42.792 5.27163H50.0237C50.282 5.27163 50.5233 5.40075 50.6666 5.61571L59.884 19.4419ZM44.2344 20.7872C36.8388 21.1713 29.4282 21.1713 22.0326 20.7872L28.4974 5.27163H37.7696L44.2344 20.7872Z" fill="black"/>
</svg>
