<svg width="55" height="46" viewBox="0 0 55 46" fill="none" xmlns="http://www.w3.org/2000/svg">
<path fill-rule="evenodd" clip-rule="evenodd" d="M0.577148 15.6742C0.577148 7.32771 7.89949 0.901184 16.4943 0.901184C20.9248 0.901184 24.8233 2.97857 27.6209 5.66655C30.4185 2.97857 34.317 0.901184 38.7475 0.901184C47.3423 0.901184 54.6647 7.32771 54.6647 15.6742C54.6647 21.3916 52.2265 26.4195 48.8485 30.6695C45.4764 34.9122 41.0654 38.513 36.842 41.4389C35.2288 42.5565 33.5969 43.5874 32.1033 44.348C30.7008 45.0623 29.0882 45.7166 27.6209 45.7166C26.1536 45.7166 24.541 45.0623 23.1385 44.348C21.6449 43.5874 20.013 42.5565 18.3999 41.4389C14.1764 38.513 9.76545 34.9122 6.39332 30.6695C3.01535 26.4195 0.577148 21.3916 0.577148 15.6742ZM16.4943 5.53726C10.068 5.53726 5.21322 10.2633 5.21322 15.6742C5.21322 20.012 7.05463 24.0506 10.0227 27.7849C12.9965 31.5265 16.9979 34.8277 21.04 37.628C22.5695 38.6876 24.0101 39.5893 25.2424 40.2168C26.5659 40.8908 27.3324 41.0805 27.6209 41.0805C27.9094 41.0805 28.6759 40.8908 29.9994 40.2168C31.2317 39.5893 32.6723 38.6876 34.2018 37.628C38.2439 34.8277 42.2453 31.5265 45.2192 27.7849C48.1872 24.0506 50.0286 20.012 50.0286 15.6742C50.0286 10.2633 45.1738 5.53726 38.7475 5.53726C35.0567 5.53726 31.6104 7.74224 29.4585 10.5409C29.0198 11.1115 28.3408 11.446 27.6209 11.446C26.9011 11.446 26.2221 11.1115 25.7833 10.5409C23.6314 7.74224 20.1851 5.53726 16.4943 5.53726Z" fill="black"/>
</svg>
