<svg width="49" height="58" viewBox="0 0 49 58" fill="none" xmlns="http://www.w3.org/2000/svg">
<path fill-rule="evenodd" clip-rule="evenodd" d="M12.708 21.4302C12.708 15.0291 17.8971 9.84002 24.2981 9.84002C30.6992 9.84002 35.8883 15.0291 35.8883 21.4302C35.8883 27.8313 30.6992 33.0204 24.2981 33.0204C17.8971 33.0204 12.708 27.8313 12.708 21.4302ZM24.2981 14.4761C20.4575 14.4761 17.344 17.5896 17.344 21.4302C17.344 25.2708 20.4575 28.3843 24.2981 28.3843C28.1388 28.3843 31.2522 25.2708 31.2522 21.4302C31.2522 17.5896 28.1388 14.4761 24.2981 14.4761Z" fill="black"/>
<path fill-rule="evenodd" clip-rule="evenodd" d="M4.07376 18.7327C4.91988 8.46782 13.4978 0.567871 23.7975 0.567871H24.7988C35.0985 0.567871 43.6764 8.46782 44.5225 18.7327C44.9761 24.235 43.2765 29.6986 39.7817 33.9727L28.6712 47.5605C26.411 50.3246 22.1853 50.3246 19.9251 47.5605L8.81464 33.9727C5.31984 29.6986 3.62022 24.235 4.07376 18.7327ZM23.7975 5.20394C15.9106 5.20394 9.34208 11.2533 8.69417 19.1136C8.33929 23.4189 9.66915 27.6938 12.4037 31.038L23.5141 44.6259C23.9194 45.1214 24.6769 45.1214 25.0821 44.6259L36.1926 31.038C38.9271 27.6938 40.257 23.4189 39.9021 19.1136C39.2542 11.2533 32.6857 5.20394 24.7988 5.20394H23.7975Z" fill="black"/>
<path d="M10.9179 44.1018C11.4904 42.9568 11.0263 41.5644 9.88122 40.9919C8.73616 40.4193 7.34378 40.8835 6.77125 42.0285L0.589817 54.3914C0.230535 55.11 0.268931 55.9633 0.691292 56.6467C1.11365 57.3301 1.85975 57.7461 2.66313 57.7461H45.9331C46.7365 57.7461 47.4826 57.3301 47.905 56.6467C48.3273 55.9633 48.3657 55.11 48.0065 54.3914L41.825 42.0285C41.2525 40.8835 39.8601 40.4193 38.7151 40.9919C37.57 41.5644 37.1059 42.9568 37.6784 44.1018L42.1825 53.11H6.41379L10.9179 44.1018Z" fill="black"/>
</svg>
