<svg width="60" height="56" viewBox="0 0 60 56" fill="none" xmlns="http://www.w3.org/2000/svg">
<path fill-rule="evenodd" clip-rule="evenodd" d="M25.2904 3.30709C27.3748 -0.285148 32.5624 -0.285138 34.6468 3.30709L41.0302 14.3081C41.6186 15.3221 42.6356 16.0141 43.7948 16.1891L54.3949 17.7902C59.0155 18.488 60.6362 24.322 57.0378 27.3033L49.3144 33.702C48.2303 34.6001 47.7206 36.0168 47.984 37.3997L50.1474 48.7611C50.9949 53.2116 46.3229 56.6695 42.3142 54.5587L31.7685 49.006C30.6419 48.4128 29.2953 48.4128 28.1686 49.006L17.623 54.5587C13.6143 56.6695 8.94228 53.2116 9.78974 48.7611L11.9532 37.3997C12.2165 36.0168 11.7068 34.6001 10.6228 33.702L2.89936 27.3033C-0.699107 24.322 0.921674 18.488 5.54228 17.7901L16.1423 16.1891C17.3015 16.0141 18.3185 15.3221 18.9069 14.3081L25.2904 3.30709ZM30.6369 5.63387C30.3391 5.12069 29.598 5.1207 29.3003 5.63387L22.9168 16.6348C21.6224 18.8657 19.385 20.388 16.8347 20.7732L6.23465 22.3742C5.57456 22.4739 5.34302 23.3073 5.85709 23.7332L13.5805 30.132C15.9654 32.1079 17.0868 35.2246 16.5074 38.2669L14.344 49.6283C14.2229 50.2641 14.8903 50.7581 15.463 50.4566L26.0086 44.9038C28.4873 43.5987 31.4498 43.5987 33.9285 44.9038L44.4741 50.4566C45.0468 50.7581 45.7142 50.2641 45.5932 49.6283L43.4297 38.2669C42.8504 35.2246 43.9718 32.1079 46.3567 30.132L54.08 23.7332C54.5941 23.3073 54.3626 22.4739 53.7025 22.3742L43.1024 20.7732C40.5522 20.388 38.3148 18.8657 37.0203 16.6348L30.6369 5.63387Z" fill="black"/>
</svg>
