<svg id="Capa_1" enable-background="new 0 0 512 512" height="512" viewBox="0 0 512 512" width="512" xmlns="http://www.w3.org/2000/svg"><g><path d="m480.639 198.679-39.282-22.679 39.282-22.679c9.565-5.523 12.844-17.755 7.32-27.321-5.522-9.566-17.755-12.843-27.32-7.321l-39.282 22.68v-45.359c0-11.046-8.954-20-20-20s-20 8.954-20 20v45.359l-39.282-22.68c-9.566-5.523-21.798-2.245-27.32 7.321-5.523 9.566-2.245 21.798 7.32 27.321l39.282 22.679-39.282 22.679c-9.565 5.523-12.844 17.755-7.32 27.321 5.54 9.596 17.782 12.827 27.32 7.321l39.282-22.68v45.359c0 11.046 8.954 20 20 20s20-8.954 20-20v-45.359l39.282 22.68c9.534 5.504 21.779 2.278 27.32-7.321 5.524-9.566 2.246-21.798-7.32-27.321z"/><path d="m261.357 100c0-55.14-44.859-100-100-100s-100 44.86-100 100v174.034c-25.525 26.075-40 61.282-40 97.966 0 77.196 62.804 140 140 140s140-62.804 140-140c0-36.684-14.475-71.891-40-97.966zm-100 372c-55.141 0-100-44.86-100-100 0-28.401 12.151-55.567 33.339-74.532 4.239-3.794 6.661-9.213 6.661-14.902v-182.566c0-33.084 26.916-60 60-60s60 26.916 60 60v182.566c0 5.688 2.422 11.108 6.661 14.902 21.188 18.966 33.339 46.132 33.339 74.532 0 55.14-44.859 100-100 100z"/><path d="m181.357 315.44v-215.44c0-11.046-8.954-20-20-20s-20 8.954-20 20v215.44c-23.278 8.256-40 30.487-40 56.56 0 33.084 26.916 60 60 60s60-26.916 60-60c0-26.073-16.722-48.304-40-56.56zm-20 76.56c-11.028 0-20-8.972-20-20s8.972-20 20-20 20 8.972 20 20-8.971 20-20 20z"/></g></svg>