<svg width="44" height="51" viewBox="0 0 44 51" fill="none" xmlns="http://www.w3.org/2000/svg">
<path fill-rule="evenodd" clip-rule="evenodd" d="M18.2087 5.15405C17.6949 5.15405 17.2207 5.42969 16.9664 5.8761L6.6249 24.0286C5.25406 26.4348 4.67879 29.2128 4.98129 31.9656L6.07275 41.8981C6.26695 43.6653 7.65429 45.0651 9.41969 45.2751L15.9629 46.0535C20.2824 46.5673 24.662 46.1219 28.7896 44.749C30.828 44.071 32.4608 42.5238 33.2474 40.5248L38.5142 27.1403C38.643 26.813 38.732 26.4715 38.7793 26.123C39.1788 23.1803 36.6027 20.698 33.6768 21.2062L23.1196 23.0398C19.7847 23.619 16.9044 20.6761 17.5553 17.3545L19.6119 6.85881C19.7849 5.97559 19.1087 5.15404 18.2087 5.15405ZM12.9381 3.58121C14.017 1.68738 16.0291 0.517994 18.2087 0.517975C22.0269 0.517941 24.8956 4.0033 24.1614 7.75028L22.1048 18.2459C22.096 18.2909 22.1007 18.3184 22.1069 18.3381C22.1146 18.3624 22.1302 18.3908 22.1561 18.4172C22.1819 18.4436 22.21 18.4599 22.2341 18.468C22.2537 18.4747 22.2811 18.48 22.3262 18.4721L32.8835 16.6385C38.8986 15.5938 44.1945 20.697 43.3733 26.7466C43.276 27.463 43.0931 28.1651 42.8283 28.8379L37.5615 42.2224C36.2718 45.4999 33.5949 48.0365 30.2528 49.1482C25.4781 50.7363 20.4119 51.2515 15.4153 50.6571L8.87206 49.8787C4.96476 49.4139 1.89422 46.3158 1.46442 42.4045L0.372957 32.472C-0.0363013 28.7476 0.741999 24.9892 2.59666 21.7337L12.9381 3.58121Z" fill="black"/>
</svg>
