<svg width="294" height="531" viewBox="0 0 294 531" fill="none" xmlns="http://www.w3.org/2000/svg">
<rect x="3.5" y="1.5" width="287" height="528" rx="36.5" fill="#503474" stroke="#211F1F" stroke-width="3"/>
<rect x="24.5" y="24.5" width="89" height="91" rx="19.5" fill="white" stroke="#211F1F" stroke-width="3"/>
<path d="M152.696 501.731L146.823 491.443L151.042 489L158.346 501.731H152.696Z" fill="white"/>
<path d="M137.052 500.29L141.271 497.83L143.504 501.731H137.87L137.052 500.29Z" fill="white"/>
<path d="M145.333 508.295H146.533V503.398H145.333V508.295Z" fill="white"/>
<path d="M160.382 508.41C159.04 508.41 158.232 507.711 158.188 506.727H159.454C159.454 507.035 159.645 507.486 160.464 507.502C161.01 507.502 161.267 507.178 161.267 506.936C161.234 506.551 160.754 506.518 160.241 506.435C159.727 506.353 159.291 506.259 158.974 506.094C158.57 505.885 158.297 505.434 158.297 504.917C158.297 504.042 159.05 503.349 160.306 503.349C161.523 503.349 162.293 503.992 162.375 504.95H161.152C161.141 504.691 161.092 504.284 160.372 504.284C159.886 504.284 159.564 504.383 159.536 504.724C159.536 505.225 160.546 505.192 161.332 505.401C162.086 505.593 162.566 506.066 162.566 506.727C162.566 507.943 161.589 508.41 160.382 508.41" fill="white"/>
<path d="M141.997 495.921L146.217 493.467L150.95 501.731H146.533V502.941H145.332V501.726L141.997 495.921Z" fill="white"/>
<path fill-rule="evenodd" clip-rule="evenodd" d="M142.106 508.41C140.709 508.41 139.573 507.26 139.573 505.868C139.573 504.46 140.709 503.349 142.106 503.349C142.636 503.349 143.116 503.492 143.537 503.783V501.731H144.738V508.295H143.537V507.97C143.116 508.245 142.636 508.41 142.106 508.41V508.41ZM140.725 505.868C140.725 506.628 141.369 507.26 142.139 507.26C142.892 507.26 143.537 506.628 143.537 505.868C143.537 505.109 142.892 504.46 142.139 504.46C141.369 504.46 140.725 505.109 140.725 505.868" fill="white"/>
<path fill-rule="evenodd" clip-rule="evenodd" d="M150.982 501.731H152.167V508.295H150.982V507.97C150.578 508.245 150.082 508.41 149.536 508.41C148.155 508.41 147.019 507.26 147.019 505.868C147.019 504.46 148.155 503.349 149.536 503.349C150.082 503.349 150.562 503.492 150.982 503.783V501.731V501.731ZM148.187 505.868C148.187 506.628 148.832 507.26 149.569 507.26C150.338 507.26 150.982 506.628 150.982 505.868C150.982 505.109 150.338 504.46 149.569 504.46C148.832 504.46 148.187 505.109 148.187 505.868Z" fill="white"/>
<path fill-rule="evenodd" clip-rule="evenodd" d="M155.088 508.41C153.712 508.41 152.571 507.26 152.571 505.868C152.571 504.46 153.712 503.349 155.088 503.349C155.617 503.349 156.114 503.492 156.518 503.783V503.393H157.719V508.295H156.518V507.97C156.114 508.245 155.633 508.41 155.088 508.41ZM153.739 505.868C153.739 506.628 154.383 507.26 155.137 507.26C155.89 507.26 156.518 506.628 156.518 505.868C156.518 505.109 155.89 504.46 155.137 504.46C154.383 504.46 153.739 505.109 153.739 505.868Z" fill="white"/>
<path fill-rule="evenodd" clip-rule="evenodd" d="M135.157 505.868C135.157 506.628 135.801 507.26 136.555 507.26C137.324 507.26 137.969 506.628 137.969 505.868C137.969 505.109 137.324 504.46 136.555 504.46C135.801 504.46 135.157 505.109 135.157 505.868V505.868ZM136.522 508.41C135.141 508.41 134 507.26 134 505.868C134 504.46 135.141 503.349 136.522 503.349C137.051 503.349 137.548 503.492 137.969 503.783V503.393H139.153V508.295H137.969V507.97C137.565 508.245 137.068 508.41 136.522 508.41Z" fill="white"/>
<rect x="292" y="80" width="2" height="32" fill="#211F1F"/>
<rect x="292" y="114" width="2" height="32" fill="#211F1F"/>
<rect y="89" width="2" height="57" fill="#211F1F"/>
<rect x="5.01367" y="423.031" width="3.03055" height="283.682" transform="rotate(-89.8706 5.01367 423.031)" fill="white"/>
<rect x="5" y="428.054" width="3.03055" height="283.682" transform="rotate(-89.8706 5 428.054)" fill="white"/>
<rect x="5.1145" y="433.053" width="3.03055" height="283.682" transform="rotate(-89.8706 5.1145 433.053)" fill="white"/>
<g clip-path="url(#clip0_1_89)">
<path d="M178.676 371.634C178.958 371.206 179.128 370.739 179.128 370.263C179.128 370.129 179.116 369.995 179.093 369.862C178.999 369.329 178.712 368.876 178.293 368.554C178.435 368.252 178.525 367.927 178.525 367.591C178.525 366.651 177.945 365.815 177.101 365.475C177.474 365.059 177.69 364.528 177.69 363.958C177.69 362.88 176.954 361.982 175.94 361.746C176.085 361.44 176.183 361.114 176.183 360.771C176.183 359.513 175.168 358.491 173.921 358.491C173.848 358.491 173.776 358.513 173.704 358.521C173.755 358.33 173.79 358.135 173.79 357.935C173.79 356.678 172.774 355.655 171.527 355.655C171.294 355.655 171.067 355.704 170.846 355.775C170.842 354.521 169.829 353.502 168.583 353.502C168.207 353.502 167.853 353.618 167.528 353.795C167.211 352.896 166.381 352.254 165.42 352.254C164.734 352.254 164.107 352.577 163.678 353.108C163.268 352.742 162.743 352.527 162.19 352.527C162.19 352.527 162.1 352.537 162.032 352.546C162.067 352.387 162.089 352.226 162.089 352.062C162.089 350.804 161.074 349.781 159.826 349.781C159.538 349.781 159.26 349.857 158.992 349.965C158.986 349.365 158.753 348.801 158.332 348.376C157.904 347.945 157.336 347.708 156.731 347.708C156.335 347.708 155.963 347.837 155.622 348.034C155.304 347.143 154.476 346.506 153.518 346.506C153.002 346.506 152.518 346.688 152.12 347.007C151.709 346.352 151.003 345.927 150.224 345.927C150.023 345.927 149.825 345.973 149.63 346.027C149.258 345.631 148.807 345.31 148.299 345.114C148.299 345.114 148.179 345.076 148.071 345.041C148.071 344.822 148.071 344.143 148.071 343.855C148.395 343.855 149.393 343.855 149.393 343.855C149.514 343.855 149.613 343.756 149.613 343.633V342.055C149.613 341.933 149.514 341.833 149.393 341.833C149.393 341.833 148.395 341.833 148.071 341.833C148.071 341.519 148.071 340.657 148.071 340.657C148.071 340.535 147.973 340.435 147.851 340.435H146.2C146.079 340.435 145.98 340.535 145.98 340.657C145.98 340.657 145.98 341.519 145.98 341.833C145.656 341.833 144.661 341.833 144.661 341.833C144.539 341.833 144.44 341.932 144.44 342.055V343.633C144.44 343.756 144.539 343.855 144.661 343.855C144.661 343.855 145.657 343.855 145.98 343.855C145.98 344.143 145.98 344.822 145.98 345.041C145.869 345.077 145.753 345.114 145.753 345.114C145.245 345.31 144.794 345.63 144.421 346.027C144.226 345.973 144.029 345.927 143.828 345.927C143.049 345.927 142.342 346.351 141.932 347.007C141.533 346.688 141.049 346.506 140.533 346.506C139.575 346.506 138.747 347.143 138.43 348.034C138.089 347.836 137.718 347.708 137.32 347.708C136.08 347.708 135.072 348.719 135.06 349.965C134.792 349.857 134.513 349.781 134.226 349.781C132.978 349.781 131.962 350.804 131.962 352.062C131.962 352.225 131.985 352.386 132.02 352.545C131.952 352.537 131.861 352.527 131.861 352.527C131.31 352.527 130.785 352.742 130.374 353.107C129.946 352.577 129.32 352.254 128.634 352.254C127.669 352.254 126.839 352.896 126.526 353.795C126.198 353.617 125.843 353.501 125.468 353.501C124.223 353.501 123.21 354.52 123.206 355.774C122.985 355.703 122.759 355.654 122.526 355.654C121.278 355.654 120.263 356.677 120.263 357.934C120.263 358.135 120.297 358.329 120.348 358.52C120.275 358.513 120.203 358.49 120.131 358.49C118.883 358.49 117.868 359.513 117.868 360.77C117.868 361.114 117.967 361.44 118.113 361.746C117.098 361.982 116.362 362.88 116.362 363.957C116.362 364.527 116.578 365.058 116.951 365.474C116.107 365.815 115.528 366.651 115.528 367.59C115.528 367.926 115.617 368.251 115.757 368.553C115.339 368.875 115.053 369.329 114.959 369.862C114.936 369.995 114.924 370.129 114.924 370.262C114.924 370.738 115.094 371.206 115.375 371.634C115.075 371.947 114.908 372.342 114.908 372.798C114.908 372.809 114.908 372.821 114.909 372.832C114.924 373.723 115.516 374.59 116.06 375.018C117.08 375.821 118.191 375.931 119.141 375.363C120.034 376.005 121.149 376.238 122.216 376.013C122.205 376.082 122.17 376.147 122.17 376.216C122.17 376.417 122.214 376.618 122.302 376.806C122.461 377.149 122.737 377.408 123.078 377.533C123.291 377.611 123.516 377.624 123.736 377.587C123.714 377.625 123.695 377.664 123.68 377.706C123.615 377.889 123.628 378.102 123.716 378.291C123.799 378.468 123.944 378.602 124.127 378.668C124.175 378.686 124.224 378.693 124.274 378.697L123.956 380.003C123.941 380.069 123.97 380.137 124.028 380.169L125.331 380.9C125.219 381.042 125.155 381.219 125.155 381.401C125.155 381.515 125.179 381.63 125.228 381.739C125.426 382.159 125.869 382.335 126.261 382.151C132.754 379.064 139.741 377.5 147.026 377.5C154.311 377.5 161.297 379.064 167.791 382.151C168.185 382.336 168.628 382.159 168.822 381.74C168.873 381.63 168.897 381.514 168.897 381.4C168.897 381.218 168.834 381.042 168.721 380.9L170.022 380.169C170.08 380.137 170.11 380.069 170.094 380.004L169.776 378.69C170.012 378.661 170.228 378.524 170.337 378.29C170.388 378.182 170.413 378.065 170.413 377.95C170.413 377.866 170.399 377.784 170.372 377.707C170.351 377.651 170.322 377.6 170.289 377.552C170.879 377.653 171.484 377.377 171.751 376.806C171.838 376.619 171.881 376.419 171.881 376.219C171.881 376.149 171.846 376.083 171.835 376.013C172.902 376.238 174.018 376.005 174.912 375.363C175.86 375.93 176.971 375.82 177.992 375.018C178.535 374.59 179.127 373.723 179.142 372.833C179.143 372.821 179.143 372.81 179.143 372.799C179.143 372.343 178.977 371.948 178.676 371.634V371.634ZM127.177 361.641C127.177 361.693 127.185 361.742 127.188 361.792C126.088 362.039 124.833 362.369 123.813 362.773C123.087 363.061 122.483 363.422 121.992 363.787C123.096 361.419 124.966 359.752 128.03 358.147C128.061 358.664 128.262 359.143 128.604 359.523C127.758 359.863 127.177 360.7 127.177 361.641ZM145.33 353.993C145.133 354.313 145.019 354.675 145.019 355.052C145.019 355.43 145.133 355.791 145.33 356.112C145.33 356.161 145.33 356.672 145.33 357.099C141.729 356.576 137.114 356.924 133.515 358.805C135.235 354.468 139.221 351.035 145.02 351.371C145.021 351.747 145.134 352.106 145.33 352.424C145.33 352.507 145.33 353.91 145.33 353.993V353.993ZM148.722 357.099C148.722 356.672 148.722 356.161 148.722 356.112C148.918 355.793 149.032 355.431 149.032 355.052C149.032 354.673 148.918 354.312 148.722 353.993C148.722 353.91 148.722 352.507 148.722 352.424C148.917 352.107 149.03 351.748 149.031 351.371C154.831 351.035 158.816 354.468 160.536 358.805C156.937 356.924 152.323 356.576 148.722 357.099V357.099ZM170.238 362.773C169.217 362.369 167.964 362.039 166.865 361.792C166.868 361.742 166.876 361.693 166.876 361.641C166.876 360.7 166.294 359.863 165.448 359.523C165.79 359.143 165.991 358.664 166.023 358.146C169.086 359.752 170.956 361.418 172.06 363.786C171.568 363.422 170.964 363.061 170.238 362.773V362.773Z" fill="#00529F"/>
<path d="M172.734 373.941C172.402 373.96 172.071 373.901 171.776 373.737C171.2 373.418 170.849 372.812 170.849 372.161C170.849 372.119 170.853 372.077 170.855 372.036C171.066 371.778 171.224 371.487 171.307 371.16C171.356 370.97 171.381 370.776 171.381 370.584C171.381 370.181 171.273 369.784 171.065 369.427C170.755 368.899 170.26 368.524 169.67 368.372C168.458 368.057 167.216 368.796 166.901 370.02C166.9 370.022 166.866 370.266 166.847 370.403C166.407 370.962 165.69 371.211 165.002 371.033C164.235 370.834 163.716 370.16 163.677 369.382C165.301 369.701 166.295 369.089 166.7 367.501C166.784 367.171 166.826 366.865 166.826 366.584C166.826 365.728 166.419 365.102 165.626 364.673C165.626 364.647 165.628 364.62 165.628 364.595C165.628 364.273 165.564 363.987 165.465 363.724C166.16 363.433 166.672 362.819 166.824 362.089C167.906 362.332 169.132 362.656 170.13 363.051C171.057 363.418 171.78 363.914 172.315 364.375C172.868 365.776 173.19 367.417 173.354 369.413C172.798 369.654 172.347 370.19 172.023 371.04C171.861 371.47 171.78 371.863 171.78 372.222C171.78 372.926 172.107 373.491 172.734 373.941V373.941Z" fill="#EE324E"/>
<path d="M159.858 368.394C159.451 369.054 158.68 369.395 157.912 369.196C157.151 369 156.61 368.314 156.578 367.525C156.749 367.199 156.848 366.837 156.848 366.466C156.848 365.203 155.829 364.175 154.575 364.175C153.321 364.175 152.301 365.203 152.301 366.466C152.301 366.656 152.337 366.842 152.384 367.024C152.144 367.773 151.468 368.277 150.685 368.277C149.894 368.277 149.238 367.748 149.01 367.006C150.647 366.902 151.456 366.064 151.456 364.43C151.456 363.041 150.877 362.231 149.7 361.949C149.505 361.121 149.022 360.578 148.27 360.313C148.741 359.935 149.033 359.364 149.033 358.74C149.033 358.36 148.919 357.999 148.723 357.681C148.723 357.66 148.723 357.55 148.723 357.398C152.376 356.859 157.103 357.226 160.695 359.223C161.051 360.216 161.293 361.25 161.41 362.294C161.003 362.498 160.674 362.838 160.426 363.311C159.218 363.29 158.462 363.935 158.118 365.279C158.034 365.608 157.992 365.913 157.992 366.194C157.991 367.267 158.614 367.989 159.858 368.394V368.394Z" fill="#EE324E"/>
<path d="M145.782 360.313C145.03 360.577 144.546 361.122 144.352 361.949C143.175 362.231 142.595 363.041 142.595 364.43C142.595 366.064 143.404 366.902 145.043 367.006C144.813 367.748 144.158 368.277 143.366 368.277C142.594 368.277 141.904 367.762 141.669 367.024C141.715 366.84 141.751 366.654 141.751 366.466C141.751 365.854 141.514 365.279 141.085 364.846C140.655 364.413 140.084 364.175 139.476 364.175C138.222 364.175 137.202 365.203 137.202 366.466C137.202 366.833 137.302 367.195 137.473 367.525C137.442 368.314 136.901 368.999 136.139 369.196C135.372 369.395 134.6 369.054 134.194 368.393C135.438 367.988 136.061 367.266 136.061 366.193C136.061 365.912 136.018 365.607 135.935 365.279C135.59 363.934 134.834 363.29 133.626 363.31C133.38 362.838 133.05 362.498 132.641 362.293C132.759 361.25 133 360.216 133.356 359.223C136.949 357.225 141.676 356.859 145.33 357.398C145.33 357.55 145.33 357.66 145.33 357.681C145.133 358.001 145.019 358.362 145.019 358.74C145.019 359.364 145.311 359.935 145.782 360.313V360.313Z" fill="#EE324E"/>
<path d="M128.426 364.673C127.634 365.102 127.227 365.727 127.227 366.584C127.227 366.865 127.269 367.171 127.354 367.501C127.758 369.09 128.751 369.701 130.374 369.382C130.338 370.159 129.818 370.834 129.049 371.033C128.361 371.211 127.644 370.962 127.205 370.403C127.188 370.284 127.151 370.022 127.151 370.022C126.837 368.796 125.595 368.057 124.381 368.372C123.793 368.524 123.298 368.898 122.989 369.426C122.779 369.783 122.672 370.181 122.672 370.585C122.672 370.777 122.696 370.97 122.745 371.16C122.828 371.486 122.985 371.777 123.197 372.035C123.2 372.076 123.203 372.117 123.203 372.158C123.203 372.811 122.852 373.418 122.277 373.737C121.982 373.901 121.65 373.96 121.319 373.941C121.945 373.491 122.272 372.926 122.272 372.223C122.272 371.864 122.19 371.47 122.028 371.041C121.707 370.19 121.256 369.655 120.697 369.413C120.861 367.417 121.183 365.776 121.736 364.376C122.271 363.914 122.993 363.418 123.921 363.05C124.917 362.656 126.145 362.332 127.228 362.089C127.381 362.819 127.892 363.433 128.587 363.724C128.488 363.989 128.424 364.274 128.424 364.595C128.424 364.62 128.426 364.647 128.426 364.673V364.673Z" fill="#EE324E"/>
<path d="M166.602 373.087C167.058 372.965 167.488 372.771 167.878 372.506C168.083 372.64 168.301 372.748 168.539 372.809C168.539 372.809 168.611 372.822 168.683 372.835C168.786 373.289 168.969 373.729 169.217 374.132C168.352 373.761 167.48 373.413 166.602 373.087Z" fill="#EE324E"/>
<path d="M147.026 369.578C147.026 369.578 146.34 369.591 145.732 369.602C146.322 369.149 146.769 368.547 147.026 367.849C147.283 368.547 147.729 369.149 148.319 369.602C147.712 369.59 147.026 369.578 147.026 369.578V369.578Z" fill="#EE324E"/>
<path d="M124.835 374.132C125.084 373.728 125.267 373.289 125.369 372.835C125.441 372.822 125.514 372.808 125.514 372.808C125.75 372.748 125.969 372.64 126.175 372.506C126.56 372.768 126.995 372.963 127.452 373.086C126.572 373.413 125.699 373.761 124.835 374.132V374.132Z" fill="#EE324E"/>
<path d="M131.703 371.699C132.15 371.116 132.407 370.419 132.48 369.688C132.899 370.299 133.476 370.773 134.155 371.066C133.328 371.26 132.51 371.471 131.703 371.699Z" fill="#EE324E"/>
<path d="M138.516 370.228C138.952 369.809 139.292 369.305 139.513 368.75C139.672 368.748 139.827 368.716 139.982 368.681C140.334 369.169 140.793 369.575 141.324 369.874C140.387 369.968 139.451 370.086 138.516 370.228V370.228Z" fill="#EE324E"/>
<path d="M152.727 369.874C153.258 369.575 153.718 369.169 154.072 368.681C154.225 368.716 154.379 368.748 154.538 368.75C154.76 369.306 155.1 369.81 155.536 370.228C154.602 370.086 153.665 369.968 152.727 369.874V369.874Z" fill="#EE324E"/>
<path d="M159.897 371.066C160.576 370.773 161.154 370.299 161.571 369.688C161.646 370.418 161.903 371.116 162.35 371.699C161.543 371.471 160.725 371.26 159.897 371.066Z" fill="#EE324E"/>
<path d="M142.82 348.206C142.82 347.647 143.272 347.193 143.828 347.193C144.382 347.193 144.834 347.647 144.834 348.206C144.834 348.765 144.382 349.22 143.828 349.22C143.272 349.22 142.82 348.765 142.82 348.206V348.206Z" fill="white"/>
<path d="M146.02 351.365C146.02 350.806 146.471 350.351 147.026 350.351C147.58 350.351 148.032 350.806 148.032 351.365C148.032 351.924 147.58 352.378 147.026 352.378C146.471 352.378 146.02 351.924 146.02 351.365Z" fill="white"/>
<path d="M146.02 355.052C146.02 354.493 146.471 354.038 147.026 354.038C147.58 354.038 148.032 354.493 148.032 355.052C148.032 355.611 147.58 356.066 147.026 356.066C146.471 356.066 146.02 355.611 146.02 355.052Z" fill="white"/>
<path d="M146.02 358.74C146.02 358.181 146.471 357.727 147.026 357.727C147.58 357.727 148.032 358.181 148.032 358.74C148.032 359.298 147.58 359.753 147.026 359.753C146.471 359.753 146.02 359.298 146.02 358.74Z" fill="white"/>
<path d="M139.528 348.786C139.528 348.515 139.632 348.261 139.823 348.07C140.013 347.878 140.265 347.773 140.533 347.773C141.087 347.773 141.539 348.228 141.539 348.786C141.539 349.345 141.088 349.799 140.533 349.799C139.979 349.799 139.528 349.345 139.528 348.786V348.786Z" fill="white"/>
<path d="M136.314 349.988C136.314 349.429 136.766 348.975 137.32 348.975C137.875 348.975 138.326 349.43 138.326 349.988C138.326 350.547 137.875 351.001 137.32 351.001C136.766 351.001 136.314 350.547 136.314 349.988Z" fill="white"/>
<path d="M133.219 352.062C133.219 351.503 133.671 351.048 134.226 351.048C134.494 351.048 134.746 351.154 134.936 351.345C135.126 351.537 135.23 351.791 135.23 352.062C135.23 352.621 134.78 353.075 134.226 353.075C133.671 353.075 133.219 352.621 133.219 352.062V352.062Z" fill="white"/>
<path d="M130.856 354.807C130.856 354.248 131.307 353.793 131.861 353.793C132.416 353.793 132.867 354.248 132.867 354.807C132.867 355.365 132.416 355.819 131.861 355.819C131.307 355.819 130.856 355.365 130.856 354.807Z" fill="white"/>
<path d="M127.627 354.534C127.627 353.976 128.079 353.522 128.634 353.522C128.903 353.522 129.155 353.627 129.345 353.818C129.535 354.009 129.639 354.263 129.639 354.534C129.639 355.093 129.188 355.548 128.634 355.548C128.079 355.548 127.627 355.093 127.627 354.534V354.534Z" fill="white"/>
<path d="M124.462 355.782C124.462 355.223 124.913 354.768 125.468 354.768C126.023 354.768 126.473 355.223 126.473 355.782C126.473 356.341 126.022 356.796 125.468 356.796C124.913 356.795 124.462 356.341 124.462 355.782Z" fill="white"/>
<path d="M121.519 357.935C121.519 357.376 121.971 356.922 122.526 356.922C123.08 356.922 123.531 357.376 123.531 357.935C123.531 358.494 123.08 358.949 122.526 358.949C121.971 358.949 121.519 358.494 121.519 357.935V357.935Z" fill="white"/>
<path d="M119.126 360.771C119.126 360.211 119.577 359.756 120.131 359.756C120.686 359.756 121.138 360.211 121.138 360.771C121.138 361.329 120.686 361.784 120.131 361.784C119.577 361.784 119.126 361.329 119.126 360.771Z" fill="white"/>
<path d="M117.619 363.958C117.619 363.4 118.071 362.945 118.626 362.945C119.181 362.945 119.632 363.4 119.632 363.958C119.632 364.517 119.18 364.972 118.626 364.972C118.071 364.972 117.619 364.517 117.619 363.958Z" fill="white"/>
<path d="M116.784 367.591C116.784 367.033 117.236 366.579 117.79 366.579C118.345 366.579 118.796 367.033 118.796 367.591C118.796 368.15 118.345 368.605 117.79 368.605C117.236 368.605 116.784 368.15 116.784 367.591Z" fill="white"/>
<path d="M129.271 358.006C129.271 357.736 129.376 357.481 129.566 357.289C129.756 357.098 130.009 356.992 130.277 356.992C130.831 356.992 131.282 357.447 131.282 358.006C131.282 358.565 130.831 359.02 130.277 359.02C129.722 359.019 129.271 358.565 129.271 358.006V358.006Z" fill="white"/>
<path d="M128.435 361.641C128.435 361.083 128.885 360.628 129.439 360.628C129.994 360.628 130.445 361.083 130.445 361.641C130.445 362.2 129.994 362.655 129.439 362.655C128.885 362.655 128.435 362.2 128.435 361.641Z" fill="white"/>
<path d="M145.217 364.008C145.217 363.002 146.028 362.185 147.026 362.185C148.023 362.185 148.835 363.002 148.835 364.008C148.835 365.013 148.024 365.831 147.026 365.831C146.028 365.831 145.217 365.013 145.217 364.008Z" fill="white"/>
<path d="M130.619 367.551C130.202 367.303 129.907 366.907 129.786 366.435C129.538 365.461 130.123 364.465 131.089 364.215C132.055 363.965 133.043 364.554 133.292 365.528C133.541 366.5 132.957 367.495 131.991 367.746C131.522 367.868 131.035 367.798 130.619 367.551V367.551Z" fill="white"/>
<path d="M116.593 373.212C116.113 372.332 116.432 371.221 117.306 370.736C117.73 370.501 118.22 370.447 118.685 370.583C119.148 370.719 119.532 371.028 119.764 371.455C119.764 371.455 119.764 371.455 119.764 371.455C120.245 372.335 119.926 373.445 119.052 373.93C118.179 374.415 117.075 374.093 116.593 373.212Z" fill="white"/>
<path d="M149.22 348.206C149.22 347.935 149.324 347.681 149.514 347.489C149.704 347.298 149.955 347.193 150.224 347.193C150.779 347.193 151.231 347.647 151.231 348.206C151.231 348.765 150.779 349.22 150.224 349.22C149.67 349.22 149.22 348.765 149.22 348.206V348.206Z" fill="white"/>
<path d="M152.514 348.786C152.514 348.228 152.965 347.773 153.519 347.773C154.073 347.773 154.525 348.228 154.525 348.786C154.525 349.345 154.073 349.799 153.519 349.799C152.965 349.799 152.514 349.345 152.514 348.786V348.786Z" fill="white"/>
<path d="M155.726 349.988C155.726 349.429 156.177 348.975 156.731 348.975C157.286 348.975 157.738 349.43 157.738 349.988C157.738 350.547 157.286 351.001 156.731 351.001C156.177 351.001 155.726 350.547 155.726 349.988Z" fill="white"/>
<path d="M158.82 352.062C158.82 351.503 159.271 351.048 159.826 351.048C160.381 351.048 160.832 351.503 160.832 352.062C160.832 352.621 160.381 353.075 159.826 353.075C159.271 353.075 158.82 352.621 158.82 352.062V352.062Z" fill="white"/>
<path d="M161.185 354.807C161.185 354.248 161.636 353.793 162.191 353.793C162.459 353.793 162.711 353.899 162.901 354.09C163.091 354.281 163.196 354.536 163.196 354.807C163.196 355.365 162.745 355.819 162.191 355.819C161.636 355.819 161.185 355.365 161.185 354.807Z" fill="white"/>
<path d="M164.412 354.534C164.412 353.976 164.864 353.522 165.419 353.522C165.973 353.522 166.425 353.976 166.425 354.534C166.425 355.093 165.973 355.548 165.419 355.548C164.864 355.548 164.412 355.093 164.412 354.534Z" fill="white"/>
<path d="M167.578 355.782C167.578 355.223 168.029 354.768 168.583 354.768C169.138 354.768 169.59 355.223 169.59 355.782C169.59 356.341 169.138 356.796 168.583 356.796C168.029 356.795 167.578 356.341 167.578 355.782Z" fill="white"/>
<path d="M170.52 357.935C170.52 357.376 170.972 356.922 171.527 356.922C172.081 356.922 172.532 357.376 172.532 357.935C172.532 358.494 172.081 358.949 171.527 358.949C170.972 358.949 170.52 358.494 170.52 357.935V357.935Z" fill="white"/>
<path d="M172.914 360.771C172.914 360.211 173.366 359.756 173.92 359.756C174.475 359.756 174.926 360.211 174.926 360.771C174.926 361.329 174.475 361.784 173.92 361.784C173.366 361.784 172.914 361.329 172.914 360.771Z" fill="white"/>
<path d="M174.421 363.958C174.421 363.4 174.872 362.945 175.427 362.945C175.981 362.945 176.433 363.4 176.433 363.958C176.433 364.517 175.982 364.972 175.427 364.972C174.872 364.972 174.421 364.517 174.421 363.958Z" fill="white"/>
<path d="M175.256 367.591C175.256 367.033 175.707 366.579 176.263 366.579C176.817 366.579 177.267 367.033 177.267 367.591C177.267 368.15 176.817 368.605 176.263 368.605C175.707 368.605 175.256 368.15 175.256 367.591Z" fill="white"/>
<path d="M162.769 358.006C162.769 357.447 163.22 356.992 163.775 356.992C164.329 356.992 164.78 357.447 164.78 358.006C164.78 358.565 164.329 359.02 163.775 359.02C163.22 359.02 162.769 358.565 162.769 358.006V358.006Z" fill="white"/>
<path d="M163.605 361.641C163.605 361.083 164.057 360.628 164.612 360.628C165.166 360.628 165.618 361.083 165.618 361.641C165.618 362.2 165.167 362.655 164.612 362.655C164.057 362.655 163.605 362.2 163.605 361.641Z" fill="white"/>
<path d="M162.062 367.746C161.594 367.625 161.2 367.327 160.955 366.908C160.71 366.489 160.64 365.999 160.761 365.528V365.528C160.881 365.056 161.176 364.66 161.591 364.412C162.007 364.164 162.495 364.094 162.963 364.215C163.431 364.337 163.825 364.634 164.071 365.054C164.316 365.473 164.385 365.963 164.265 366.435C164.144 366.907 163.849 367.304 163.433 367.551C163.017 367.798 162.53 367.868 162.062 367.746V367.746Z" fill="white"/>
<path d="M175 373.931C174.575 373.695 174.268 373.307 174.134 372.839C174 372.372 174.055 371.881 174.288 371.455C174.288 371.455 174.288 371.455 174.288 371.455C174.52 371.028 174.904 370.719 175.368 370.583C175.833 370.447 176.322 370.501 176.745 370.736C177.169 370.971 177.476 371.357 177.611 371.824C177.746 372.292 177.692 372.785 177.459 373.213C176.977 374.093 175.874 374.415 175 373.931V373.931Z" fill="white"/>
<path d="M139.547 375.054C139.547 374.784 139.652 374.529 139.843 374.338C140.033 374.146 140.285 374.041 140.553 374.041C141.109 374.041 141.56 374.495 141.56 375.054C141.56 375.613 141.109 376.068 140.553 376.068C139.999 376.068 139.547 375.613 139.547 375.054V375.054Z" fill="white"/>
<path d="M127.07 378.452C127.07 378.181 127.175 377.926 127.365 377.735C127.555 377.543 127.807 377.438 128.075 377.438C128.63 377.438 129.082 377.893 129.082 378.452C129.082 379.011 128.63 379.466 128.075 379.466C127.521 379.466 127.07 379.011 127.07 378.452Z" fill="white"/>
<path d="M147.026 373.516C147.116 373.55 149.655 374.503 150.245 374.725C149.655 374.947 147.116 375.901 147.026 375.934C146.936 375.901 144.397 374.947 143.807 374.725C144.397 374.503 146.936 373.55 147.026 373.516V373.516Z" fill="#EE324E"/>
<path d="M124.595 378.63C124.828 378.716 125.757 379.061 125.948 379.132C125.897 379.333 125.625 380.404 125.555 380.684C125.307 380.545 124.424 380.05 124.271 379.965C124.312 379.794 124.536 378.872 124.595 378.63V378.63Z" fill="#EE324E"/>
<path d="M152.493 375.054C152.493 374.495 152.944 374.041 153.498 374.041C154.053 374.041 154.506 374.495 154.506 375.054C154.506 375.613 154.053 376.068 153.498 376.068C152.944 376.068 152.493 375.613 152.493 375.054Z" fill="white"/>
<path d="M164.972 378.452C164.972 377.893 165.422 377.438 165.977 377.438C166.531 377.438 166.981 377.893 166.981 378.452C166.981 379.011 166.531 379.466 165.977 379.466C165.422 379.466 164.972 379.011 164.972 378.452Z" fill="white"/>
<path d="M169.837 377.728C169.837 377.728 169.837 377.727 169.837 377.728C162.677 374.329 155.002 372.605 147.026 372.605C139.049 372.605 131.375 374.329 124.214 377.728C124.156 377.755 124.116 377.799 124.095 377.857C124.069 377.93 124.076 378.019 124.115 378.103C124.148 378.173 124.205 378.225 124.276 378.251C124.347 378.277 124.424 378.273 124.493 378.241C124.546 378.216 124.607 378.213 124.662 378.233C124.717 378.253 124.762 378.295 124.787 378.348L124.806 378.391L126.175 378.898C126.247 378.925 126.287 379.001 126.268 379.075L125.861 380.677L125.907 380.776C125.958 380.887 125.911 381.019 125.801 381.071C125.623 381.155 125.545 381.372 125.627 381.552C125.706 381.718 125.884 381.839 126.073 381.75C132.626 378.635 139.675 377.056 147.026 377.056C154.376 377.056 161.426 378.635 167.978 381.75C168.169 381.839 168.346 381.719 168.423 381.553C168.507 381.372 168.43 381.156 168.25 381.071C168.141 381.019 168.093 380.887 168.145 380.776L168.191 380.677L167.784 379.075C167.765 379.001 167.805 378.925 167.876 378.898L169.245 378.392L169.265 378.348C169.289 378.295 169.334 378.253 169.389 378.233C169.444 378.213 169.505 378.216 169.558 378.241C169.701 378.309 169.871 378.246 169.938 378.102C169.977 378.02 169.984 377.931 169.958 377.858C169.937 377.799 169.896 377.756 169.837 377.728V377.728ZM128.075 379.764C127.357 379.764 126.774 379.175 126.774 378.452C126.774 378.101 126.91 377.772 127.156 377.524C127.401 377.276 127.728 377.14 128.075 377.14C128.793 377.14 129.378 377.728 129.378 378.452C129.378 379.175 128.793 379.764 128.075 379.764ZM137.85 375.556L134.663 377.796C134.634 377.817 134.598 377.826 134.563 377.822L130.696 377.411C130.634 377.404 130.583 377.36 130.568 377.3C130.552 377.239 130.576 377.176 130.627 377.14L133.815 374.901C133.845 374.881 133.88 374.871 133.916 374.875L137.781 375.285C137.842 375.292 137.893 375.336 137.909 375.396C137.924 375.456 137.901 375.521 137.85 375.556V375.556ZM140.553 376.366C139.835 376.366 139.252 375.778 139.252 375.054C139.252 374.704 139.387 374.375 139.634 374.127C139.88 373.879 140.206 373.743 140.553 373.743C141.272 373.743 141.857 374.331 141.857 375.054C141.856 375.778 141.272 376.366 140.553 376.366V376.366ZM150.721 374.865L147.078 376.233C147.044 376.246 147.008 376.246 146.974 376.233L143.332 374.865C143.274 374.843 143.236 374.787 143.236 374.725C143.236 374.663 143.274 374.607 143.332 374.585L146.974 373.217C147.008 373.205 147.044 373.205 147.078 373.217L150.721 374.585C150.779 374.607 150.817 374.663 150.817 374.725C150.817 374.787 150.779 374.843 150.721 374.865ZM153.498 376.366C152.781 376.366 152.197 375.778 152.197 375.054C152.197 374.331 152.781 373.743 153.498 373.743C154.217 373.743 154.802 374.331 154.802 375.054C154.802 375.778 154.217 376.366 153.498 376.366ZM163.355 377.411L159.491 377.823C159.455 377.826 159.42 377.817 159.39 377.797L156.201 375.556C156.151 375.521 156.127 375.457 156.143 375.397C156.158 375.336 156.209 375.292 156.27 375.286L160.136 374.876C160.171 374.872 160.207 374.881 160.236 374.901L163.425 377.141C163.475 377.176 163.498 377.24 163.483 377.3C163.468 377.36 163.417 377.405 163.355 377.411ZM165.976 379.764C165.259 379.764 164.676 379.175 164.676 378.452C164.676 377.728 165.26 377.14 165.976 377.14C166.694 377.14 167.277 377.728 167.277 378.452C167.277 379.175 166.694 379.764 165.976 379.764Z" fill="#FEBE10"/>
<path d="M178.266 371.841C178.175 371.765 178.161 371.63 178.233 371.536C178.603 371.05 178.754 370.483 178.658 369.94C178.575 369.467 178.309 369.066 177.909 368.812C177.809 368.748 177.777 368.615 177.837 368.512C177.999 368.234 178.084 367.915 178.084 367.591C178.084 366.728 177.476 365.972 176.638 365.795C176.554 365.777 176.488 365.712 176.469 365.628C176.449 365.544 176.48 365.456 176.548 365.403C176.994 365.052 177.249 364.525 177.249 363.958C177.249 363.007 176.541 362.221 175.601 362.131C175.524 362.124 175.456 362.076 175.423 362.006C175.39 361.936 175.395 361.853 175.438 361.788C175.637 361.486 175.742 361.134 175.742 360.771C175.742 359.758 174.925 358.935 173.92 358.935C173.762 358.935 173.601 358.957 173.442 359C173.359 359.023 173.271 358.995 173.216 358.93C173.161 358.864 173.148 358.772 173.184 358.694C173.293 358.453 173.348 358.198 173.348 357.935C173.348 356.922 172.531 356.098 171.527 356.098C171.239 356.098 170.954 356.168 170.701 356.299C170.63 356.336 170.545 356.324 170.479 356.28C170.412 356.235 170.376 356.151 170.382 356.07L170.406 355.782C170.406 354.769 169.588 353.945 168.583 353.945C168.208 353.945 167.848 354.06 167.542 354.277C167.482 354.32 167.404 354.329 167.336 354.302C167.267 354.275 167.216 354.216 167.2 354.143C167.017 353.306 166.268 352.698 165.419 352.698C164.797 352.698 164.224 353.014 163.885 353.544C163.848 353.602 163.786 353.639 163.717 353.645C163.649 353.651 163.582 353.624 163.536 353.573C163.193 353.19 162.702 352.971 162.19 352.971L161.78 353.019C161.703 353.028 161.615 352.998 161.568 352.936C161.521 352.875 161.497 352.794 161.525 352.722C161.607 352.511 161.649 352.289 161.649 352.062C161.649 351.049 160.83 350.225 159.825 350.225C159.487 350.225 159.154 350.322 158.861 350.505C158.79 350.549 158.701 350.541 158.63 350.497C158.559 350.453 158.52 350.364 158.528 350.28L158.553 349.988C158.553 349.497 158.364 349.036 158.019 348.689C157.675 348.342 157.218 348.151 156.73 348.151C156.338 348.151 155.962 348.278 155.643 348.517C155.583 348.562 155.504 348.574 155.434 348.547C155.364 348.521 155.312 348.461 155.296 348.387C155.113 347.554 154.365 346.949 153.518 346.949C153.03 346.949 152.572 347.141 152.227 347.489C152.176 347.54 152.104 347.563 152.034 347.551C151.963 347.538 151.902 347.492 151.872 347.427C151.572 346.785 150.925 346.37 150.223 346.37C150.023 346.37 149.825 346.404 149.631 346.47C149.547 346.499 149.454 346.474 149.395 346.406C149.056 346.017 148.622 345.714 148.141 345.528L147.795 345.417C147.704 345.387 147.63 345.298 147.63 345.202V343.633C147.63 343.51 147.728 343.411 147.85 343.411C147.85 343.411 148.848 343.411 149.171 343.411C149.171 343.137 149.171 342.551 149.171 342.277C148.848 342.277 147.85 342.277 147.85 342.277C147.728 342.277 147.63 342.177 147.63 342.055C147.63 342.055 147.63 341.193 147.63 340.879C147.35 340.879 146.7 340.879 146.42 340.879C146.42 341.193 146.42 342.055 146.42 342.055C146.42 342.177 146.321 342.277 146.199 342.277C146.199 342.277 145.203 342.277 144.879 342.277C144.879 342.551 144.879 343.137 144.879 343.411C145.203 343.411 146.199 343.411 146.199 343.411C146.321 343.411 146.42 343.51 146.42 343.633V345.202C146.42 345.299 146.346 345.388 146.254 345.417L145.909 345.529C145.427 345.714 144.993 346.018 144.654 346.407C144.595 346.474 144.502 346.499 144.417 346.47C144.225 346.404 144.026 346.37 143.826 346.37C143.124 346.37 142.477 346.785 142.178 347.427C142.147 347.492 142.087 347.538 142.016 347.551C141.945 347.563 141.873 347.54 141.822 347.489C141.477 347.141 141.019 346.949 140.531 346.949C139.684 346.949 138.936 347.554 138.753 348.387C138.737 348.461 138.685 348.521 138.615 348.547C138.544 348.573 138.466 348.562 138.406 348.517C138.089 348.277 137.713 348.151 137.319 348.151C136.314 348.151 135.497 348.975 135.497 349.987L135.523 350.277C135.531 350.361 135.492 350.451 135.421 350.495C135.35 350.539 135.262 350.549 135.191 350.505C134.896 350.321 134.562 350.225 134.224 350.225C133.219 350.225 132.401 351.048 132.401 352.061C132.401 352.287 132.443 352.509 132.526 352.722C132.554 352.794 132.53 352.874 132.482 352.936C132.435 352.998 132.347 353.027 132.27 353.018L131.859 352.97C131.348 352.97 130.858 353.19 130.513 353.573C130.467 353.624 130.4 353.65 130.331 353.644C130.263 353.639 130.201 353.601 130.164 353.543C129.826 353.013 129.254 352.697 128.632 352.697C127.78 352.697 127.032 353.305 126.853 354.142C126.837 354.215 126.787 354.274 126.718 354.301C126.649 354.328 126.572 354.319 126.511 354.277C126.202 354.059 125.841 353.944 125.467 353.944C124.462 353.944 123.644 354.768 123.644 355.781L123.669 356.066C123.676 356.146 123.641 356.232 123.574 356.277C123.508 356.322 123.424 356.336 123.353 356.299C123.091 356.165 122.812 356.098 122.525 356.098C121.52 356.098 120.702 356.922 120.702 357.934C120.702 358.198 120.757 358.454 120.865 358.694C120.9 358.772 120.887 358.864 120.832 358.929C120.777 358.994 120.689 359.022 120.606 358.999C120.448 358.956 120.287 358.934 120.129 358.934C119.124 358.934 118.307 359.757 118.307 360.77C118.307 361.133 118.413 361.485 118.612 361.786C118.655 361.851 118.661 361.934 118.628 362.005C118.595 362.075 118.527 362.123 118.45 362.13C117.51 362.221 116.801 363.006 116.801 363.957C116.801 364.524 117.056 365.051 117.502 365.402C117.569 365.455 117.6 365.543 117.58 365.627C117.561 365.711 117.495 365.776 117.411 365.794C116.574 365.972 115.966 366.727 115.966 367.59C115.966 367.914 116.051 368.233 116.212 368.512C116.271 368.615 116.239 368.747 116.139 368.811C115.74 369.065 115.474 369.466 115.391 369.939C115.295 370.483 115.447 371.05 115.817 371.535C115.889 371.629 115.874 371.764 115.784 371.84C115.488 372.091 115.341 372.422 115.347 372.824C115.36 373.536 115.851 374.291 116.329 374.668C116.863 375.088 117.924 375.681 119.032 374.926C119.11 374.872 119.214 374.876 119.29 374.934C120.183 375.628 121.359 375.842 122.435 375.508C122.519 375.482 122.61 375.509 122.667 375.575C122.724 375.642 122.737 375.736 122.699 375.816C122.579 376.069 122.579 376.361 122.699 376.617C122.809 376.854 122.996 377.031 123.227 377.115C123.444 377.195 123.683 377.183 123.9 377.081C131.153 373.636 138.933 371.889 147.024 371.889C155.116 371.889 162.899 373.636 170.158 377.08C170.614 377.265 171.139 377.07 171.351 376.616C171.47 376.362 171.469 376.07 171.349 375.816C171.311 375.736 171.324 375.642 171.381 375.575C171.438 375.508 171.529 375.482 171.612 375.508C172.689 375.842 173.865 375.627 174.76 374.934C174.835 374.875 174.939 374.872 175.018 374.926C176.123 375.68 177.185 375.088 177.719 374.668C178.197 374.291 178.688 373.537 178.701 372.825C178.709 372.423 178.562 372.092 178.266 371.841V371.841ZM177.563 367.591C177.563 368.314 176.98 368.903 176.263 368.903C175.544 368.903 174.96 368.314 174.96 367.591C174.96 366.868 175.544 366.281 176.263 366.281C176.98 366.281 177.563 366.868 177.563 367.591V367.591ZM175.427 362.647C176.145 362.647 176.729 363.235 176.729 363.958C176.729 364.681 176.145 365.27 175.427 365.27C174.709 365.27 174.126 364.682 174.126 363.958C174.126 363.235 174.709 362.647 175.427 362.647ZM173.92 359.458C174.638 359.458 175.222 360.047 175.222 360.771C175.222 361.494 174.638 362.082 173.92 362.082C173.202 362.082 172.618 361.493 172.618 360.771C172.618 360.047 173.202 359.458 173.92 359.458ZM174.029 371.311L174.028 371.312L174.029 371.311ZM171.527 356.624C172.244 356.624 172.828 357.212 172.828 357.935C172.828 358.658 172.244 359.247 171.527 359.247C170.809 359.247 170.225 358.658 170.225 357.935C170.225 357.212 170.809 356.624 171.527 356.624ZM168.583 354.47C169.301 354.47 169.886 355.058 169.886 355.782C169.886 356.505 169.301 357.093 168.583 357.093C167.866 357.093 167.282 356.505 167.282 355.782C167.282 355.058 167.866 354.47 168.583 354.47V354.47ZM165.419 353.223C166.137 353.223 166.72 353.811 166.72 354.534C166.72 355.257 166.136 355.846 165.419 355.846C164.701 355.846 164.116 355.257 164.116 354.534C164.116 353.811 164.701 353.223 165.419 353.223ZM163.775 356.694C164.492 356.694 165.076 357.283 165.076 358.006C165.076 358.729 164.492 359.317 163.775 359.317C163.057 359.317 162.473 358.729 162.473 358.006C162.473 357.283 163.057 356.694 163.775 356.694ZM161.441 364.155C161.925 363.867 162.492 363.785 163.037 363.927C163.582 364.068 164.039 364.414 164.326 364.902C164.612 365.389 164.692 365.96 164.552 366.509C164.411 367.058 164.067 367.52 163.584 367.808C163.1 368.095 162.533 368.176 161.989 368.035C161.444 367.894 160.986 367.547 160.7 367.059C160.507 366.729 160.408 366.36 160.408 365.986C160.408 365.808 160.43 365.63 160.475 365.453V365.453V365.453C160.614 364.905 160.957 364.444 161.441 364.155V364.155ZM164.612 362.953C163.893 362.953 163.309 362.364 163.309 361.641C163.309 360.918 163.893 360.33 164.612 360.33C165.33 360.33 165.914 360.918 165.914 361.641C165.914 362.365 165.33 362.953 164.612 362.953ZM162.19 353.495C162.538 353.495 162.864 353.631 163.11 353.879C163.356 354.127 163.491 354.457 163.491 354.807C163.491 355.53 162.908 356.118 162.19 356.118C161.472 356.118 160.888 355.53 160.888 354.807C160.888 354.084 161.472 353.495 162.19 353.495V353.495ZM159.825 350.75C160.544 350.75 161.128 351.339 161.128 352.062C161.128 352.785 160.544 353.373 159.825 353.373C159.108 353.373 158.524 352.785 158.524 352.062C158.524 351.339 159.108 350.75 159.825 350.75ZM156.731 348.676C157.449 348.676 158.033 349.265 158.033 349.988C158.033 350.711 157.449 351.299 156.731 351.299C156.013 351.299 155.43 350.711 155.43 349.988C155.43 349.265 156.013 348.676 156.731 348.676ZM153.518 347.475C154.237 347.475 154.821 348.063 154.821 348.786C154.821 349.509 154.237 350.097 153.518 350.097C152.801 350.097 152.218 349.509 152.218 348.786C152.218 348.063 152.801 347.475 153.518 347.475V347.475ZM149.305 347.279C149.55 347.031 149.876 346.895 150.223 346.895C150.942 346.895 151.526 347.483 151.526 348.206C151.526 348.929 150.942 349.517 150.223 349.517C149.507 349.517 148.924 348.929 148.924 348.206C148.924 347.856 149.059 347.526 149.305 347.279V347.279ZM147.026 350.053C147.744 350.053 148.328 350.642 148.328 351.365C148.328 352.088 147.744 352.676 147.026 352.676C146.308 352.676 145.724 352.088 145.724 351.365C145.724 350.642 146.308 350.053 147.026 350.053ZM145.724 358.74C145.724 358.017 146.308 357.428 147.026 357.428C147.744 357.428 148.328 358.017 148.328 358.74C148.328 359.462 147.744 360.051 147.026 360.051C146.308 360.051 145.724 359.463 145.724 358.74ZM149.131 364.008C149.131 365.177 148.187 366.129 147.026 366.129C145.865 366.129 144.921 365.177 144.921 364.008C144.921 362.838 145.865 361.887 147.026 361.887C148.187 361.887 149.131 362.838 149.131 364.008ZM147.026 356.364C146.308 356.364 145.724 355.776 145.724 355.052C145.724 354.329 146.308 353.74 147.026 353.74C147.744 353.74 148.328 354.329 148.328 355.052C148.328 355.776 147.744 356.364 147.026 356.364ZM143.828 346.895C144.545 346.895 145.129 347.483 145.129 348.206C145.129 348.929 144.545 349.517 143.828 349.517C143.109 349.517 142.525 348.929 142.525 348.206C142.525 347.483 143.109 346.895 143.828 346.895V346.895ZM139.613 347.859C139.859 347.611 140.186 347.475 140.533 347.475C141.251 347.475 141.834 348.064 141.834 348.786C141.834 349.509 141.25 350.097 140.533 350.097C139.815 350.097 139.232 349.509 139.232 348.786C139.232 348.436 139.367 348.107 139.613 347.859V347.859ZM137.32 348.676C138.038 348.676 138.622 349.265 138.622 349.988C138.622 350.711 138.038 351.299 137.32 351.299C136.602 351.299 136.018 350.711 136.018 349.988C136.018 349.265 136.602 348.676 137.32 348.676ZM134.226 350.75C134.573 350.75 134.9 350.887 135.146 351.134C135.391 351.382 135.527 351.712 135.527 352.062C135.527 352.785 134.943 353.373 134.226 353.373C133.508 353.373 132.924 352.785 132.924 352.062C132.923 351.339 133.508 350.75 134.226 350.75V350.75ZM131.861 353.495C132.579 353.495 133.163 354.084 133.163 354.807C133.163 355.529 132.579 356.117 131.861 356.117C131.144 356.117 130.56 355.529 130.56 354.807C130.56 354.084 131.144 353.495 131.861 353.495ZM131.015 363.927C132.139 363.635 133.289 364.32 133.579 365.453C133.868 366.585 133.189 367.743 132.065 368.035C131.52 368.176 130.953 368.096 130.468 367.808C129.984 367.52 129.64 367.058 129.5 366.509C129.211 365.376 129.891 364.217 131.015 363.927V363.927ZM128.139 361.641C128.139 360.918 128.722 360.33 129.439 360.33C130.157 360.33 130.741 360.918 130.741 361.641C130.741 362.364 130.157 362.953 129.439 362.953C128.722 362.953 128.139 362.365 128.139 361.641ZM130.277 356.694C130.994 356.694 131.578 357.283 131.578 358.006C131.578 358.729 130.994 359.317 130.277 359.317C129.559 359.317 128.975 358.729 128.975 358.006C128.975 357.656 129.111 357.327 129.357 357.079C129.603 356.831 129.93 356.694 130.277 356.694ZM128.634 353.223C128.982 353.223 129.308 353.36 129.554 353.607C129.799 353.855 129.935 354.184 129.935 354.534C129.935 355.257 129.351 355.846 128.634 355.846C127.916 355.846 127.332 355.257 127.332 354.534C127.331 353.811 127.916 353.223 128.634 353.223ZM125.468 354.47C126.185 354.47 126.769 355.058 126.769 355.782C126.769 356.505 126.185 357.093 125.468 357.093C124.75 357.093 124.166 356.505 124.166 355.782C124.166 355.058 124.75 354.47 125.468 354.47V354.47ZM122.526 356.624C123.243 356.624 123.827 357.212 123.827 357.935C123.827 358.658 123.243 359.247 122.526 359.247C121.808 359.247 121.224 358.658 121.224 357.935C121.224 357.212 121.808 356.624 122.526 356.624ZM120.131 359.458C120.849 359.458 121.434 360.047 121.434 360.771C121.434 361.494 120.849 362.082 120.131 362.082C119.414 362.082 118.83 361.493 118.83 360.771C118.83 360.047 119.414 359.458 120.131 359.458V359.458ZM120.024 371.312C120.024 371.311 120.024 371.311 120.024 371.312V371.312ZM117.323 363.958C117.323 363.235 117.907 362.647 118.626 362.647C119.344 362.647 119.928 363.235 119.928 363.958C119.928 364.681 119.344 365.27 118.626 365.27C117.907 365.27 117.323 364.682 117.323 363.958ZM117.79 366.281C118.508 366.281 119.092 366.868 119.092 367.591C119.092 368.314 118.508 368.903 117.79 368.903C117.072 368.903 116.488 368.314 116.488 367.591C116.488 366.868 117.072 366.281 117.79 366.281V366.281ZM119.195 374.192C118.179 374.755 116.895 374.381 116.334 373.357C115.775 372.332 116.147 371.04 117.163 370.475C117.657 370.202 118.226 370.139 118.767 370.297C119.307 370.455 119.753 370.815 120.024 371.312C120.2 371.635 120.284 371.985 120.284 372.33C120.284 373.078 119.891 373.805 119.195 374.192V374.192ZM128.354 373.22C126.978 373.707 125.604 374.257 124.269 374.853C124.173 374.895 124.061 374.864 124 374.778C123.94 374.693 123.947 374.576 124.018 374.498C124.508 373.969 124.848 373.295 124.975 372.601C124.992 372.51 125.073 372.438 125.163 372.422C125.163 372.422 125.403 372.379 125.404 372.379C125.635 372.319 125.851 372.215 126.045 372.068C126.123 372.01 126.229 372.009 126.307 372.067C126.873 372.485 127.579 372.741 128.296 372.789C128.4 372.796 128.485 372.876 128.499 372.98C128.514 373.085 128.453 373.185 128.354 373.22V373.22ZM129.158 371.463C128.282 371.69 127.366 371.365 126.822 370.637C126.8 370.607 126.783 370.549 126.778 370.512L126.724 370.131C126.471 369.143 125.47 368.547 124.491 368.801C124.016 368.924 123.618 369.226 123.368 369.651C123.119 370.076 123.049 370.572 123.172 371.05C123.245 371.336 123.381 371.594 123.578 371.815C123.609 371.85 123.629 371.895 123.633 371.942C123.718 372.836 123.27 373.693 122.49 374.126C121.926 374.439 121.254 374.489 120.647 374.265C120.565 374.235 120.508 374.158 120.503 374.069C120.498 373.981 120.546 373.898 120.625 373.858C121.784 373.274 122.09 372.454 121.617 371.198C121.313 370.396 120.904 369.91 120.4 369.757C120.301 369.727 120.236 369.631 120.244 369.527C120.729 363.285 122.648 360.384 128.142 357.585C128.213 357.549 128.301 357.547 128.367 357.591C128.433 357.636 128.475 357.706 128.469 357.785L128.454 358.006C128.454 358.573 128.71 359.1 129.157 359.452C129.225 359.505 129.256 359.593 129.236 359.677C129.217 359.761 129.151 359.826 129.067 359.844C128.227 360.02 127.617 360.776 127.617 361.641C127.617 362.448 128.153 363.171 128.92 363.4C128.983 363.419 129.034 363.465 129.06 363.525C129.086 363.586 129.084 363.655 129.054 363.713C128.906 364.009 128.844 364.368 128.871 364.778C128.876 364.868 128.827 364.953 128.746 364.992C127.775 365.46 127.477 366.2 127.78 367.39C128.145 368.821 128.997 369.286 130.546 368.896C130.609 368.881 130.675 368.893 130.727 368.931C130.78 368.968 130.813 369.027 130.819 369.091C130.919 370.19 130.221 371.188 129.158 371.463V371.463ZM134.999 371.321C133.668 371.613 132.346 371.954 131.07 372.335C130.97 372.364 130.863 372.32 130.814 372.228C130.764 372.136 130.785 372.021 130.864 371.953C131.74 371.198 132.187 370.061 132.062 368.911C132.05 368.801 132.12 368.699 132.226 368.672C132.332 368.644 132.442 368.7 132.484 368.802C132.926 369.873 133.865 370.652 134.996 370.887C135.098 370.908 135.171 370.998 135.172 371.103C135.172 371.208 135.1 371.299 134.999 371.321V371.321ZM142.175 370.23C140.716 370.355 139.239 370.541 137.785 370.783C137.681 370.8 137.58 370.742 137.543 370.644C137.505 370.545 137.542 370.434 137.63 370.377C138.344 369.918 138.889 369.235 139.164 368.456C139.196 368.364 139.278 368.304 139.375 368.308L139.476 368.312C139.658 368.312 139.838 368.286 140.011 368.233C140.103 368.206 140.203 368.241 140.257 368.322C140.717 369.009 141.416 369.533 142.225 369.798C142.325 369.83 142.388 369.929 142.376 370.034C142.363 370.139 142.28 370.221 142.175 370.23V370.23ZM141.232 367.121C141.22 367.08 141.22 367.035 141.232 366.994C141.284 366.821 141.31 366.644 141.31 366.466C141.31 365.972 141.119 365.508 140.773 365.159C140.427 364.811 139.966 364.618 139.476 364.618C138.465 364.618 137.642 365.447 137.642 366.466C137.642 366.786 137.728 367.105 137.89 367.388C137.91 367.423 137.92 367.463 137.92 367.504C137.898 368.504 137.211 369.377 136.249 369.626C135.187 369.901 134.098 369.368 133.658 368.357C133.632 368.298 133.633 368.23 133.661 368.171C133.689 368.113 133.741 368.07 133.803 368.053C135.346 367.64 135.873 366.819 135.508 365.389C135.203 364.199 134.588 363.696 133.513 363.757C133.423 363.762 133.339 363.711 133.3 363.629C133.065 363.119 132.745 362.79 132.321 362.623C132.229 362.587 132.172 362.493 132.182 362.394C132.805 356.267 137.499 350.364 145.268 350.937C145.388 350.946 145.478 351.061 145.47 351.182L145.459 351.365C145.459 351.683 145.554 351.99 145.732 352.255C145.757 352.291 145.77 352.335 145.77 352.379V354.038C145.77 354.083 145.757 354.126 145.732 354.163C145.554 354.427 145.459 354.734 145.459 355.052C145.459 355.37 145.554 355.678 145.732 355.942C145.757 355.979 145.77 356.022 145.77 356.067V357.726C145.77 357.77 145.757 357.814 145.732 357.851C145.554 358.114 145.459 358.421 145.459 358.739C145.459 359.363 145.826 359.929 146.392 360.182C146.482 360.221 146.534 360.315 146.522 360.412C146.51 360.51 146.436 360.587 146.34 360.603C145.417 360.757 144.909 361.256 144.739 362.173C144.722 362.262 144.653 362.332 144.565 362.349C143.507 362.559 143.035 363.201 143.035 364.43C143.035 365.906 143.748 366.57 145.345 366.583C145.409 366.583 145.47 366.612 145.512 366.661C145.553 366.711 145.571 366.776 145.561 366.84C145.384 367.929 144.46 368.72 143.365 368.72C142.39 368.72 141.513 368.063 141.232 367.121V367.121ZM149.304 369.89C149.28 369.991 149.187 370.062 149.083 370.06L147.026 370.022L144.968 370.06C144.864 370.062 144.772 369.991 144.748 369.89C144.724 369.788 144.771 369.683 144.865 369.638C145.918 369.131 146.644 368.136 146.808 366.977C146.823 366.868 146.916 366.787 147.026 366.787C147.136 366.787 147.228 366.868 147.244 366.977C147.408 368.136 148.134 369.13 149.187 369.638C149.28 369.683 149.328 369.788 149.304 369.89V369.89ZM156.509 370.644C156.472 370.742 156.371 370.8 156.268 370.783C154.815 370.541 153.337 370.355 151.876 370.23C151.772 370.221 151.687 370.139 151.676 370.034C151.663 369.929 151.727 369.83 151.826 369.798C152.634 369.533 153.333 369.009 153.796 368.321C153.851 368.241 153.951 368.205 154.043 368.233C154.214 368.286 154.393 368.312 154.575 368.312L154.676 368.308C154.772 368.304 154.855 368.364 154.887 368.455C155.164 369.236 155.709 369.919 156.423 370.377C156.51 370.434 156.547 370.545 156.509 370.644ZM157.802 369.626C156.841 369.377 156.154 368.505 156.132 367.504C156.131 367.463 156.141 367.423 156.162 367.387C156.323 367.109 156.408 366.79 156.408 366.466C156.408 365.447 155.586 364.618 154.575 364.618C153.564 364.618 152.741 365.447 152.741 366.466C152.741 366.645 152.768 366.822 152.82 366.992C152.833 367.034 152.833 367.079 152.82 367.122C152.533 368.078 151.675 368.72 150.685 368.72C149.59 368.72 148.668 367.929 148.492 366.84C148.481 366.776 148.499 366.711 148.541 366.661C148.582 366.612 148.643 366.583 148.707 366.583C150.303 366.57 151.015 365.906 151.015 364.43C151.015 363.201 150.543 362.559 149.486 362.349C149.397 362.332 149.329 362.262 149.312 362.173C149.142 361.256 148.633 360.758 147.711 360.603C147.616 360.587 147.541 360.51 147.529 360.412C147.517 360.315 147.569 360.221 147.659 360.182C148.225 359.929 148.592 359.363 148.592 358.739C148.592 358.419 148.498 358.112 148.32 357.851C148.295 357.814 148.281 357.77 148.281 357.726V356.067C148.281 356.022 148.295 355.978 148.32 355.942C148.498 355.679 148.592 355.371 148.592 355.052C148.592 354.733 148.498 354.425 148.32 354.163C148.295 354.126 148.281 354.083 148.281 354.038V352.379C148.281 352.335 148.295 352.291 148.32 352.254C148.498 351.992 148.592 351.684 148.592 351.365L148.581 351.187C148.574 351.066 148.663 350.945 148.783 350.937C156.552 350.364 161.247 356.267 161.869 362.394C161.879 362.493 161.822 362.587 161.73 362.623C161.309 362.789 160.989 363.118 160.751 363.629C160.713 363.712 160.629 363.762 160.539 363.757C159.464 363.696 158.849 364.199 158.544 365.389C158.179 366.819 158.705 367.641 160.249 368.053C160.311 368.07 160.363 368.113 160.391 368.172C160.419 368.23 160.42 368.298 160.395 368.357C159.953 369.368 158.863 369.901 157.802 369.626V369.626ZM163.237 372.228C163.187 372.32 163.081 372.365 162.981 372.335C161.706 371.954 160.385 371.613 159.053 371.321C158.952 371.299 158.879 371.208 158.88 371.103C158.881 370.998 158.954 370.908 159.056 370.887C160.188 370.652 161.127 369.873 161.567 368.802C161.609 368.7 161.719 368.645 161.825 368.672C161.931 368.7 162.001 368.801 161.99 368.911C161.865 370.061 162.313 371.198 163.188 371.954C163.266 372.022 163.287 372.136 163.237 372.228V372.228ZM170.051 374.778C169.99 374.864 169.878 374.895 169.782 374.852C168.442 374.255 167.068 373.705 165.697 373.22C165.598 373.185 165.537 373.085 165.551 372.981C165.566 372.876 165.651 372.796 165.755 372.789C166.481 372.741 167.169 372.491 167.745 372.067C167.823 372.01 167.93 372.01 168.008 372.069C168.2 372.215 168.415 372.319 168.648 372.379L168.888 372.422C168.978 372.439 169.059 372.511 169.075 372.602C169.205 373.296 169.545 373.97 170.032 374.499C170.104 374.576 170.111 374.693 170.051 374.778V374.778ZM173.651 369.757C173.15 369.91 172.74 370.395 172.434 371.198C171.961 372.454 172.268 373.274 173.428 373.858C173.507 373.898 173.555 373.981 173.55 374.069C173.545 374.158 173.488 374.235 173.406 374.265C172.797 374.49 172.125 374.439 171.563 374.126C170.782 373.693 170.333 372.835 170.419 371.942C170.424 371.895 170.443 371.851 170.474 371.815C170.67 371.595 170.807 371.337 170.88 371.049C171.003 370.573 170.934 370.077 170.685 369.653C170.436 369.227 170.036 368.924 169.56 368.801C168.583 368.548 167.581 369.144 167.328 370.128L167.274 370.513C167.269 370.55 167.252 370.607 167.23 370.637C166.685 371.365 165.768 371.69 164.892 371.463C163.832 371.188 163.133 370.191 163.231 369.092C163.237 369.027 163.271 368.969 163.323 368.931C163.375 368.893 163.442 368.881 163.504 368.896C165.054 369.286 165.908 368.821 166.273 367.39C166.576 366.201 166.278 365.461 165.306 364.992C165.225 364.953 165.175 364.868 165.181 364.778C165.209 364.359 165.148 364.011 164.998 363.714C164.968 363.655 164.966 363.586 164.992 363.526C165.017 363.465 165.069 363.419 165.132 363.4C165.899 363.171 166.436 362.447 166.436 361.641C166.436 360.776 165.826 360.02 164.986 359.844C164.902 359.826 164.835 359.761 164.815 359.677C164.797 359.593 164.827 359.504 164.895 359.451C165.342 359.101 165.597 358.574 165.597 358.006L165.583 357.788C165.577 357.708 165.619 357.637 165.685 357.593C165.751 357.549 165.84 357.549 165.91 357.585C171.404 360.383 173.323 363.285 173.807 369.527C173.815 369.631 173.751 369.727 173.651 369.757V369.757ZM177.717 373.357C177.157 374.381 175.874 374.755 174.856 374.192C174.363 373.918 174.005 373.466 173.849 372.921C173.794 372.727 173.766 372.528 173.766 372.331C173.766 371.978 173.854 371.629 174.028 371.311C174.298 370.815 174.745 370.455 175.285 370.297C175.826 370.138 176.395 370.202 176.888 370.475C177.38 370.747 177.738 371.197 177.895 371.741C178.052 372.285 177.989 372.859 177.717 373.357V373.357Z" fill="#FEBE10"/>
<path d="M169.458 378.63C169.516 378.873 169.739 379.794 169.78 379.965C169.628 380.05 168.746 380.545 168.498 380.684C168.427 380.404 168.155 379.333 168.104 379.132C168.296 379.061 169.224 378.717 169.458 378.63Z" fill="#EE324E"/>
<path d="M99.3215 426.722C99.3215 453.208 120.721 474.755 147.025 474.755C173.33 474.755 194.729 453.208 194.729 426.722C194.729 400.208 173.33 378.638 147.025 378.638C120.721 378.638 99.3215 400.208 99.3215 426.722V426.722Z" fill="#00529F"/>
<path d="M100.675 426.722C100.675 439.589 105.872 451.254 114.266 459.707C122.661 468.159 134.245 473.392 147.026 473.392C159.805 473.392 171.39 468.159 179.786 459.707C188.18 451.254 193.377 439.589 193.377 426.722C193.377 413.84 188.18 402.163 179.786 393.7C171.39 385.239 159.805 380.001 147.026 380.001C134.246 380.001 122.661 385.239 114.266 393.7C105.872 402.163 100.675 413.84 100.675 426.722V426.722Z" fill="#FEBE10"/>
<path d="M104.736 426.696C104.737 403.203 123.706 384.094 147.026 384.093C170.346 384.094 189.314 403.203 189.315 426.696C189.314 450.19 170.346 469.3 147.026 469.301C123.706 469.3 104.737 450.19 104.736 426.696V426.696Z" fill="#00529F"/>
<path d="M106.089 426.697C106.089 403.957 124.453 385.456 147.026 385.456C169.598 385.456 187.962 403.957 187.962 426.697C187.962 449.437 169.598 467.938 147.026 467.938C124.453 467.938 106.089 449.437 106.089 426.697V426.697Z" fill="white"/>
<path d="M186.265 426.545C186.265 412.158 178.464 398.862 165.907 391.845L165.645 391.699C165.645 391.699 156.733 401.028 156.509 401.263C156.489 401.263 156.462 401.263 156.462 401.263C156.462 401.263 156.324 401.402 156.316 401.411C153.393 400.318 150.273 399.731 147.031 399.685C147.031 399.685 147.031 399.685 147.031 399.685C143.721 399.685 140.298 400.303 137.337 401.41C137.01 401.066 128.202 391.799 128.202 391.799L127.939 391.948C127.844 392.001 127.753 392.058 127.659 392.112L127.643 392.096C120.503 396.178 114.751 402.446 111.289 409.992C111.295 409.999 111.302 410.006 111.309 410.013C108.959 415.123 107.683 420.748 107.683 426.545C107.683 436.003 111.054 444.823 117.432 452.051L117.71 452.366L122.928 446.995L122.641 446.721C119.816 444.02 114.614 436.501 114.614 426.986C114.614 426.726 114.618 426.464 114.626 426.2C114.759 422.38 115.43 418.802 116.63 415.479C118.089 416.977 119.545 418.473 120.997 419.963C120.538 421.786 120.287 423.65 120.263 425.522C120.262 425.633 120.261 425.745 120.261 425.855C120.261 437.893 128.529 448.683 140.068 451.726C140.068 452.262 140.068 458.495 140.068 458.495H147.315C147.315 458.495 147.315 453.24 147.315 452.576C148.943 452.54 150.573 452.342 152.175 451.996C155.657 455.579 159.157 459.181 162.689 462.82C170.124 459.538 176.365 454.005 180.554 447.079L180.548 447.072C184.263 440.931 186.265 433.835 186.265 426.545ZM140.068 443.589C132.645 440.879 127.88 434.424 127.717 426.864C131.843 431.101 135.953 435.323 140.068 439.551C140.068 441.695 140.068 443.291 140.068 443.589ZM146.97 411.421C146.526 410.965 143.806 408.167 143.057 407.397C144.396 407.137 145.751 406.995 146.654 407.037C148.085 407.081 149.385 407.249 150.62 407.533C149.928 408.27 147.403 410.96 146.97 411.421ZM174.914 441.218L151.726 417.122C154.516 414.153 157.544 410.93 157.783 410.676C160.218 412.406 162.194 414.671 163.502 417.256L163.728 417.702L169.555 412.631L169.388 412.348C167.803 409.668 165.595 407.209 163.01 405.189C163.495 404.689 166.472 401.618 166.869 401.209C172.876 405.556 178.869 415.426 178.869 426.188C178.869 432.492 177.421 437.055 174.914 441.218V441.218Z" fill="#00529F"/>
<path d="M165.887 393.411C164.28 395.094 157.254 402.449 157.254 402.449L157.084 402.626H157.023C156.969 402.68 156.924 402.726 156.924 402.726L156.661 402.99L156.314 402.857L156.078 402.766C153.236 401.672 150.188 401.093 147.026 401.048C143.846 401.047 140.378 401.678 137.57 402.765L136.972 402.996L136.708 402.719C136.708 402.719 129.583 395.223 127.961 393.516C116.27 400.404 109.036 412.989 109.036 426.545C109.038 435.327 112.051 443.522 117.772 450.354C118.6 449.501 120.24 447.814 121.026 447.004C117.951 443.684 113.272 436.279 113.261 426.982C113.261 426.708 113.265 426.433 113.274 426.155C113.636 415.557 118.011 406.689 126.208 399.937L126.893 399.371L132.712 405.434L131.843 406.094C125.523 410.895 121.705 418.18 121.617 425.539C121.615 425.644 121.615 425.75 121.615 425.855C121.61 437.37 129.601 447.715 140.691 450.491L141.422 450.674V451.125C141.422 451.131 141.422 455.463 141.422 457.132C142.546 457.132 144.838 457.132 145.962 457.132C145.962 456.494 145.962 455.476 145.962 454.501C145.962 453.111 145.962 451.809 145.962 451.807V451.233L146.919 451.228C153.974 451.187 161.118 447.894 165.722 442.623C164.894 441.781 163.046 439.898 162.166 439.003C157.725 443.821 151.576 446.294 147.383 446.308C147.209 446.308 147.04 446.303 146.875 446.295L145.962 446.248V439.267H146.535C146.541 439.267 152.01 439.267 153.892 439.267C153.892 438.25 153.892 436.32 153.892 435.302C152.009 435.302 146.535 435.302 146.535 435.303H145.962V429.646H146.535C146.535 429.646 152.095 429.646 153.994 429.647C153.994 428.742 153.994 427.147 153.994 426.242C151.719 426.242 143.696 426.242 141.421 426.242C141.421 429.479 141.421 444.701 141.421 444.701V445.501L140.154 445.076C131.761 442.264 126.351 434.97 126.356 426.465C126.356 426.333 126.357 426.199 126.36 426.066C126.505 419.233 129.754 413.075 135.259 409.208L135.931 408.735L136.27 409.087C136.27 409.087 144.905 418.062 146.966 420.204C148.972 418.07 157.264 409.246 157.264 409.246L157.599 408.89L158.277 409.353C160.677 410.997 162.671 413.129 164.112 415.568C165.084 414.722 166.957 413.091 167.79 412.366C166.263 409.985 164.231 407.788 161.857 405.996L160.979 405.332L166.708 399.425L167.378 399.89C173.812 404.391 180.206 414.775 180.222 426.189C180.232 435.274 177.153 441.171 172.573 446.838C173.431 447.704 175.426 449.714 176.361 450.658C181.879 443.878 184.912 435.359 184.912 426.546C184.912 412.901 177.639 400.277 165.887 393.411V393.411ZM147.395 412.951L146.986 413.386L140.381 406.591L142.062 406.208C143.564 405.866 145.121 405.667 146.304 405.666C146.444 405.666 146.58 405.668 146.702 405.674C148.476 405.729 150.089 405.956 151.62 406.37L153.18 406.791L147.395 412.951V412.951Z" fill="#FEBE10"/>
</g>
<defs>
<clipPath id="clip0_1_89">
<rect width="96" height="135" fill="white" transform="translate(99 340)"/>
</clipPath>
</defs>
</svg>
