<svg width="62" height="59" viewBox="0 0 62 59" fill="none" xmlns="http://www.w3.org/2000/svg">
<path fill-rule="evenodd" clip-rule="evenodd" d="M56.2244 8.39525H13.5336L9.88601 1.85714C9.47659 1.12327 8.70205 0.668457 7.8617 0.668457H3.22563C1.94541 0.668457 0.907593 1.70628 0.907593 2.98649C0.907593 4.26671 1.94541 5.30453 3.22563 5.30453H6.50055L10.1003 11.7569L18.4022 30.1257L18.4107 30.1444L19.1419 31.7623L10.8067 40.6532C10.2074 41.2925 10.0198 42.2151 10.3219 43.0376C10.6239 43.8602 11.364 44.4421 12.2346 44.5416L19.832 45.4099C29.335 46.496 38.9307 46.496 48.4337 45.4099L56.031 44.5416C57.303 44.3963 58.2163 43.2473 58.0709 41.9754C57.9255 40.7034 56.7766 39.7902 55.5046 39.9355L47.9072 40.8038C38.7541 41.8499 29.5116 41.8499 20.3584 40.8038L17.3434 40.4592L23.4611 33.9337C23.5202 33.8706 23.5752 33.805 23.626 33.7374L25.9527 34.0401C29.2132 34.4644 32.509 34.5475 35.7867 34.2883C43.4315 33.6837 50.5167 30.046 55.4633 24.1859L57.2499 22.0693C57.3099 21.9983 57.3656 21.9236 57.4166 21.8459L60.7465 16.7714C63.1067 13.1745 60.5265 8.39525 56.2244 8.39525ZM23.7983 29.0846C23.287 29.0181 22.8462 28.6934 22.6309 28.2254L22.6268 28.2163L15.7639 13.0313H56.2244C56.839 13.0313 57.2076 13.7141 56.8704 14.2279L53.6172 19.1856L51.9206 21.1955C47.7728 26.1093 41.8316 29.1597 35.4212 29.6667C32.4647 29.9005 29.4918 29.8255 26.5509 29.4428L23.7983 29.0846Z" fill="white"/>
<path d="M17.1339 49.3472C14.5734 49.3472 12.4978 51.4229 12.4978 53.9833C12.4978 56.5437 14.5734 58.6194 17.1339 58.6194C19.6943 58.6194 21.7699 56.5437 21.7699 53.9833C21.7699 51.4229 19.6943 49.3472 17.1339 49.3472Z" fill="white"/>
<path d="M46.4956 53.9833C46.4956 51.4229 48.5713 49.3472 51.1317 49.3472C53.6922 49.3472 55.7678 51.4229 55.7678 53.9833C55.7678 56.5437 53.6922 58.6194 51.1317 58.6194C48.5713 58.6194 46.4956 56.5437 46.4956 53.9833Z" fill="white"/>
</svg>
