<svg width="50" height="60" viewBox="0 0 50 60" fill="none" xmlns="http://www.w3.org/2000/svg">
<path fill-rule="evenodd" clip-rule="evenodd" d="M10.3674 15.6606V15.2901C10.3674 8.59026 14.9034 2.74035 21.3922 1.07181C23.7906 0.455069 26.306 0.455069 28.7044 1.0718C35.1932 2.74035 39.7292 8.59027 39.7292 15.2901V15.6606H44.3687C46.1344 15.6606 47.6329 16.9556 47.8889 18.7026L48.5648 23.3154C49.8954 32.3973 49.8954 41.6247 48.5648 50.7066C47.9221 55.0924 44.3855 58.4831 39.9764 58.9403L38.0328 59.1419C29.3996 60.0372 20.697 60.0372 12.0638 59.1419L10.1201 58.9403C5.71112 58.4831 2.17444 55.0924 1.53183 50.7066C0.201141 41.6247 0.201142 32.3973 1.53183 23.3154L2.20769 18.7026C2.46366 16.9556 3.96218 15.6606 5.72785 15.6606H10.3674ZM22.5467 5.56181C24.1877 5.13983 25.9089 5.13983 27.5499 5.56181C31.9896 6.70344 35.0931 10.706 35.0931 15.2901V15.6606H15.0035V15.2901C15.0035 10.706 18.107 6.70344 22.5467 5.56181ZM10.3674 20.2967V27.2508C10.3674 28.531 11.4052 29.5689 12.6854 29.5689C13.9657 29.5689 15.0035 28.531 15.0035 27.2508V20.2967H35.0931V27.2508C35.0931 28.531 36.1309 29.5689 37.4112 29.5689C38.6914 29.5689 39.7292 28.531 39.7292 27.2508V20.2967H43.4369L43.9777 23.9875C45.243 32.6237 45.243 41.3983 43.9777 50.0345C43.6425 52.322 41.7979 54.0905 39.4982 54.329L37.5546 54.5306C29.2393 55.3929 20.8572 55.3929 12.542 54.5306L10.5984 54.329C8.29873 54.0905 6.45409 52.322 6.11892 50.0345C4.85354 41.3983 4.85354 32.6237 6.11892 23.9875L6.65969 20.2967H10.3674Z" fill="black"/>
</svg>
