<svg width="53" height="53" viewBox="0 0 53 53" fill="none" xmlns="http://www.w3.org/2000/svg">
<path d="M15.3861 15.5571C16.2914 14.6518 17.7591 14.6518 18.6643 15.5571L26.2974 23.1902L33.9304 15.5571C34.8357 14.6519 36.3034 14.6519 37.2086 15.5571C38.1139 16.4624 38.1139 17.9301 37.2086 18.8353L29.5756 26.4684L37.2086 34.1014C38.1139 35.0066 38.1139 36.4743 37.2086 37.3796C36.3034 38.2848 34.8357 38.2848 33.9304 37.3796L26.2974 29.7466L18.6644 37.3796C17.7591 38.2848 16.2914 38.2848 15.3862 37.3796C14.4809 36.4743 14.4809 35.0066 15.3862 34.1014L23.0192 26.4684L15.3861 18.8353C14.4809 17.93 14.4809 16.4623 15.3861 15.5571Z" fill="#A7A6A5"/>
<path fill-rule="evenodd" clip-rule="evenodd" d="M11.8227 1.02793C21.3655 -0.0386082 31.2292 -0.0386082 40.7719 1.02793C46.4167 1.65883 50.9752 6.10526 51.6393 11.7828C52.7804 21.5399 52.7804 31.3968 51.6393 41.154C50.9752 46.8315 46.4167 51.2779 40.7719 51.9088C31.2292 52.9754 21.3655 52.9754 11.8227 51.9088C6.1779 51.2779 1.61942 46.8315 0.955377 41.154C-0.185809 31.3968 -0.185809 21.5399 0.955377 11.7828C1.61942 6.10526 6.17791 1.65883 11.8227 1.02793ZM40.257 5.63532C31.0565 4.60703 21.5382 4.60703 12.3377 5.63532C8.80056 6.03064 5.96931 8.82232 5.56006 12.3213C4.46073 21.7207 4.46073 31.2161 5.56006 40.6154C5.96931 44.1144 8.80056 46.9061 12.3377 47.3014C21.5382 48.3297 31.0564 48.3297 40.257 47.3014C43.7941 46.9061 46.6253 44.1144 47.0346 40.6154C48.1339 31.2161 48.1339 21.7207 47.0346 12.3213C46.6253 8.82232 43.7941 6.03064 40.257 5.63532Z" fill="#A7A6A5"/>
</svg>
