<svg width="48" height="63" viewBox="0 0 48 63" fill="none" xmlns="http://www.w3.org/2000/svg">
<path d="M17.7716 0C16.4914 0 15.4536 1.03782 15.4536 2.31804V4.63607H2.31804C1.03782 4.63607 0 5.67389 0 6.95411C0 8.23433 1.03782 9.27215 2.31804 9.27215H45.588C46.8683 9.27215 47.9061 8.23433 47.9061 6.95411C47.9061 5.67389 46.8683 4.63607 45.588 4.63607H32.4525V2.31804C32.4525 1.03782 31.4147 0 30.1345 0H17.7716Z" fill="#C64A23"/>
<path d="M17.7716 25.962C19.0518 25.962 20.0896 26.9998 20.0896 28.28L20.0896 49.915C20.0896 51.1952 19.0518 52.2331 17.7716 52.2331C16.4914 52.2331 15.4536 51.1952 15.4536 49.915L15.4536 28.28C15.4536 26.9998 16.4914 25.962 17.7716 25.962Z" fill="#C64A23"/>
<path d="M32.4525 28.28C32.4525 26.9998 31.4147 25.962 30.1345 25.962C28.8543 25.962 27.8164 26.9998 27.8164 28.28V49.915C27.8164 51.1952 28.8543 52.2331 30.1345 52.2331C31.4147 52.2331 32.4525 51.1952 32.4525 49.915V28.28Z" fill="#C64A23"/>
<path fill-rule="evenodd" clip-rule="evenodd" d="M5.38225 17.5156C5.51268 16.3417 6.50495 15.4536 7.68611 15.4536H40.2199C41.4011 15.4536 42.3934 16.3417 42.5238 17.5156L43.1424 23.0831C44.2638 33.1753 44.2638 43.3606 43.1424 53.4528L43.0815 54.0009C42.6364 58.0069 39.5316 61.2013 35.5399 61.7601C27.8528 62.8363 20.0533 62.8363 12.3662 61.7601C8.37442 61.2013 5.26966 58.0069 4.82454 54.0009L4.76364 53.4528C3.64229 43.3606 3.64229 33.1753 4.76364 23.0831L5.38225 17.5156ZM9.76085 20.0896L9.37136 23.595C8.28781 33.347 8.28781 43.1889 9.37136 52.9408L9.43226 53.4889C9.64336 55.3888 11.1158 56.9038 13.009 57.1688C20.2696 58.1853 27.6364 58.1853 34.8971 57.1688C36.7902 56.9038 38.2627 55.3888 38.4738 53.4889L38.5347 52.9408C39.6182 43.1889 39.6182 33.347 38.5347 23.595L38.1452 20.0896H9.76085Z" fill="#C64A23"/>
</svg>
