<svg width="132" height="132" viewBox="0 0 132 132" fill="none" xmlns="http://www.w3.org/2000/svg">
<path d="M79.9999 66L129 17C130.826 15.1371 131.842 12.629 131.829 10.0207C131.816 7.41243 130.774 4.91472 128.93 3.07036C127.085 1.226 124.588 0.184015 121.979 0.170842C119.371 0.157668 116.863 1.17437 115 3L65.9999 52L16.9999 3C15.137 1.17437 12.6289 0.157668 10.0207 0.170842C7.41237 0.184015 4.91466 1.226 3.0703 3.07036C1.22594 4.91472 0.183954 7.41243 0.170781 10.0207C0.157607 12.629 1.17431 15.1371 2.99994 17L51.9999 66L2.99994 115C1.17431 116.863 0.157607 119.371 0.170781 121.979C0.183954 124.588 1.22594 127.085 3.0703 128.93C4.91466 130.774 7.41237 131.816 10.0207 131.829C12.6289 131.842 15.137 130.826 16.9999 129L65.9999 80L115 129C116.863 130.826 119.371 131.842 121.979 131.829C124.588 131.816 127.085 130.774 128.93 128.93C130.774 127.085 131.816 124.588 131.829 121.979C131.842 119.371 130.826 116.863 129 115L79.9999 66Z" fill="#C64A23"/>
</svg>
