<svg width="34" height="33" viewBox="0 0 34 33" fill="none" xmlns="http://www.w3.org/2000/svg">
<g clip-path="url(#clip0_407_149)">
<path d="M28.8789 2.828L30.2929 4.242L12.9999 21.535L7.70691 16.242L9.12091 14.828L11.5859 17.293L12.9999 18.707L14.4139 17.293L28.8789 2.828ZM28.8789 0L12.9999 15.879L9.12091 12L4.87891 16.242L12.9999 24.363L33.1209 4.242L28.8789 0Z" fill="#2B7841"/>
<path d="M16 32.121C7.178 32.121 0 24.943 0 16.121C0 7.299 7.178 0.121002 16 0.121002C17.41 0.121002 18.846 0.320002 20.267 0.713002L19.734 2.641C18.486 2.296 17.23 2.121 16 2.121C8.28 2.121 2 8.401 2 16.121C2 23.841 8.28 30.121 16 30.121C23.72 30.121 30 23.841 30 16.121C30 14.891 29.825 13.635 29.48 12.388L31.408 11.855C31.801 13.275 32 14.711 32 16.121C32 24.943 24.822 32.121 16 32.121Z" fill="#2B7841"/>
</g>
<defs>
<clipPath id="clip0_407_149">
<rect width="33.121" height="32.121" fill="white"/>
</clipPath>
</defs>
</svg>
